<mxfile host="app.diagrams.net" agent="Mozilla/5.0 (Windows NT 10.0; Win64; x64) AppleWebKit/537.36 (KHTML, like Gecko) Chrome/134.0.0.0 Safari/537.36 Edg/134.0.0.0" version="26.1.0">
  <diagram name="Page-1" id="OZPd-YuBwSYzLSnptrxG">
    <mxGraphModel dx="866" dy="537" grid="1" gridSize="10" guides="1" tooltips="1" connect="1" arrows="1" fold="1" page="1" pageScale="1" pageWidth="1600" pageHeight="900" math="0" shadow="0">
      <root>
        <mxCell id="0" />
        <mxCell id="1" parent="0" />
        <mxCell id="CfFWP4Z1jpDRqIM0_j2F-11" style="edgeStyle=orthogonalEdgeStyle;rounded=0;orthogonalLoop=1;jettySize=auto;html=1;" edge="1" parent="1" source="CfFWP4Z1jpDRqIM0_j2F-5" target="CfFWP4Z1jpDRqIM0_j2F-9">
          <mxGeometry relative="1" as="geometry" />
        </mxCell>
        <mxCell id="CfFWP4Z1jpDRqIM0_j2F-5" value="" style="dashed=0;outlineConnect=0;html=1;align=center;labelPosition=center;verticalLabelPosition=bottom;verticalAlign=top;shape=mxgraph.weblogos.github" vertex="1" parent="1">
          <mxGeometry x="240" y="560" width="75" height="75" as="geometry" />
        </mxCell>
        <mxCell id="CfFWP4Z1jpDRqIM0_j2F-9" value="" style="sketch=0;pointerEvents=1;shadow=0;dashed=0;html=1;strokeColor=none;fillColor=#505050;labelPosition=center;verticalLabelPosition=bottom;verticalAlign=top;outlineConnect=0;align=center;shape=mxgraph.office.concepts.folder;aspect=fixed;" vertex="1" parent="1">
          <mxGeometry x="420" y="560" width="93.75" height="75" as="geometry" />
        </mxCell>
      </root>
    </mxGraphModel>
  </diagram>
</mxfile>
